<?xml version="1.0" encoding="UTF-8"?>
<svg width="32" height="32" viewBox="0 0 32 32" xmlns="http://www.w3.org/2000/svg">
  <defs>
    <linearGradient id="bgGradient" x1="0%" y1="0%" x2="100%" y2="100%">
      <stop offset="0%" style="stop-color:#1a5490" />
      <stop offset="100%" style="stop-color:#4d7eb8" />
    </linearGradient>
    <linearGradient id="arrowGradient" x1="0%" y1="0%" x2="100%" y2="100%">
      <stop offset="0%" style="stop-color:#6b93d6" />
      <stop offset="100%" style="stop-color:#4f84c4" />
    </linearGradient>
  </defs>
  
  <!-- Grid container -->
  <rect x="2" y="2" width="28" height="28" rx="4" ry="4" fill="url(#bgGradient)" />
  
  <!-- Grid cells -->
  <rect x="5" y="5" width="6" height="6" rx="1" fill="white" opacity="0.9" />
  <rect x="13" y="5" width="6" height="6" rx="1" fill="white" opacity="0.9" />
  <rect x="21" y="5" width="6" height="6" rx="1" fill="white" opacity="0.9" />
  <rect x="5" y="13" width="6" height="6" rx="1" fill="white" opacity="0.9" />
  <rect x="13" y="13" width="6" height="6" rx="1" fill="white" opacity="0.9" />
  <rect x="21" y="13" width="6" height="6" rx="1" fill="white" opacity="0.7" />
  <rect x="5" y="21" width="6" height="6" rx="1" fill="white" opacity="0.9" />
  <rect x="13" y="21" width="6" height="6" rx="1" fill="white" opacity="0.9" />
  <rect x="21" y="21" width="6" height="6" rx="1" fill="white" opacity="0.9" />
  
  <!-- Arrow pointing up-right from cell -->
  <path d="M 23 15 L 27 11 L 26 10 L 29 10 L 29 13 L 28 12 L 24 16 Z" fill="url(#arrowGradient)" />
</svg>
